<svg viewBox="0 0 32 32" id="weather-occ-snow--32" xmlns="http://www.w3.org/2000/svg" width="100%" height="100%"><g fill="none"><g fill="#ffb64e"><path d="M15.89 8.7c.3-1.88 1.93-3.3 3.84-3.3a3.87 3.87 0 0 1 3.88 3.88c0 1.04-.41 2-1.14 2.74l1.41 1.41c1.1-1.1 1.73-2.58 1.73-4.16 0-3.26-2.62-5.88-5.88-5.88-2.91 0-5.36 2.13-5.82 4.98l1.98.31M18.84 0v2.12h2V0zM26.74 10.55h2.12v-2h-2.12zM25.71 4.94l1.38-1.43-1.45-1.39-1.37 1.43zM15.25 3.6l-1.38-1.43-1.44 1.39 1.38 1.43z"></path></g><path d="M11.52 13.32c-.01-.01-.27-.21-.37-.29-.19-.15-.38-.28-.58-.41-.84-.54-1.75-.87-2.78-.94C4.57 11.68 2 14.25 2 17.4s2.57 5.72 5.72 5.72H23c3.15 0 5.72-2.57 5.72-5.72s-2.57-5.72-5.72-5.72c-.8 0-1.52.14-2.22.46l.41.91.97-.24c-.76-3.12-3.39-5.33-6.54-5.33-2.3 0-4.62 1.22-5.79 3.13l1.71 1.05c.8-1.3 2.46-2.18 4.08-2.18 2.21 0 4.05 1.55 4.6 3.8l.29 1.17 1.1-.5c.43-.19.86-.28 1.39-.28 2.05 0 3.72 1.67 3.72 3.72 0 2.05-1.67 3.72-3.72 3.72H7.72C5.67 21.11 4 19.44 4 17.39c0-2.05 1.67-3.72 3.72-3.72.61.04 1.2.26 1.77.63.15.09.29.19.44.31.08.06.33.26.36.28l1.23-1.58M7.75 27.05a1.25 1.25 0 1 0 0-2.5 1.25 1.25 0 0 0 0 2.5m3.82 3.56a1.25 1.25 0 1 0 0-2.5 1.25 1.25 0 0 0 0 2.5m7.69 0a1.25 1.25 0 1 0 0-2.5 1.25 1.25 0 0 0 0 2.5m-3.82-3.56a1.25 1.25 0 1 0 0-2.5 1.25 1.25 0 0 0 0 2.5m7.69 0a1.25 1.25 0 1 0 0-2.5 1.25 1.25 0 0 0 0 2.5" fill="#649dff"></path></g></svg>